<svg xmlns="http://www.w3.org/2000/svg" viewBox="0 0 990 990"><defs><style>.cls-1{fill:none;}</style></defs><title>Asset 2</title><g id="Layer_2" data-name="Layer 2"><g id="Layer_1-2" data-name="Layer 1"><rect class="cls-1" width="990" height="990"/><path d="M109.11,985l-3.5-3.68c1.84-1.63,3.4-3.58,5.41-4.73q20.58-11.8,41.34-23.28a36.06,36.06,0,0,1,6.1-2.14c25.49-8.58,48-22.65,69.89-37.87-4.19-5.68-7.52-6.69-13.62-3.69-9.11,4.47-18.12,9.17-27,14-9.35,5.08-18.41,10.72-27.92,15.48-2.66,1.33-7.54,1.8-9.44.26-3-2.41-1.23-6.42,1.27-9.28,4.15-4.77,7.68-10.4,12.68-14s11.2-5.39,17.12-7.27c5.42-1.73,6.68-3.11,4.54-8-1.25-2.86-2.69-5.52.67-7.93,3.56-2.54,7-5.55,11.68-2.37,6,4.13,12.06,4.06,18.27.35,3.63-2.18,5.44-5,3.46-9.1-2.35-4.9-.44-7.84,4-10,7.82-3.7,15.56-7.58,23.37-11.3,3.91-1.86,7.59-2.73,11.45.79,3.51,3.19,7.07,1.19,10.41-1.16,3.85-2.72,7.86-5.24,11.94-7.93,5.14,8.08-4.16,9.17-5.39,15.07,2.74,0,5.57.77,7.7-.13,9.65-4.08,19.16-8.52,28.58-13.12,1.72-.83,2.8-3,4.18-4.53l-1.2-2-14,4.26c-.29-.31-.58-.63-.88-.94,3-2.82,5.56-6.3,9-8.34,12.6-7.46,25.48-14.44,38.27-21.59,4-2.23,7.87-2.44,12.4-.85a15.87,15.87,0,0,0,10.1-.11c10.41-3.95,20.59-8.52,30.78-13,2-.91,3.7-2.64,6.21-4.48-10.24-7-17.54,0-25.69,1.63.26-4,1.37-7.22,5.09-9,7.47-3.62,15-7.13,22.37-11,3.34-1.73,6.35-4.1,10.43-6.78-8.8-3.94-16.06-2.07-23.18-1.07-13.62,1.91-25.24,7.55-34.41,18.33-7.47,8.78-18.23,8.79-28.64,8.24-1.34-.07-3.75-3.69-3.52-5.38.79-5.77,2.39-11.41,8.13-14.7,4.18-2.39,8.07-5.33,12.31-7.61a23.89,23.89,0,0,1,16-2.34,21.06,21.06,0,0,0,10.26-.64c13.66-4.78,27.19-9.94,40.69-15.14,6.13-2.36,6.35-3.47,3.54-9.07a4,4,0,0,1,0-3.45,20.82,20.82,0,0,1,4.78-4.95c43.12-30.31,88-57.62,135.83-80,22.42-10.46,41.28-26.19,60.09-41.88,3.75-3.13,6.75-7.38,9.44-11.54,4.79-7.41,3.54-14.3-4.46-18a111.22,111.22,0,0,0-27.3-8.87c-25.43-4.33-51.06-7.49-76.58-11.33-32.51-4.9-55.68-32.21-53.71-64.21C469.49,486,475,469,483,453.16c25.19-49.61,65.91-80.14,119-94.43,16.76-4.51,33.79-1.33,50.43,2.66,13.62,3.27,26.83,2.54,39.35-4,10.58-5.53,20.91-11.57,31.49-17.1,1.73-.91,4.71-1.22,6.26-.32,4.14,2.39,6.54,1.2,9.23-2.24,2.52-3.23,5.79-5.86,8.74-8.75l1.55,1c.18,3.59.73,7.2.46,10.75-.44,5.83-1.49,11.61,2.48,16.8.53.68.43,1.92.43,2.91,0,12.32-.68,24.68,0,37,1.83,33.39-13.41,58.18-38.24,78.43a10.86,10.86,0,0,0-1.17.93c-10,10.79-21.26,10.57-32.82,3.3A95.56,95.56,0,0,1,663,466.69a179.24,179.24,0,0,0-40.39-30.78c-12.19-6.83-23.73-6.41-35.05,1.84-11.6,8.45-23.34,16.74-31.87,28.56-10.42,14.43-15.16,30.06-10.82,48,3.06,12.64,11.08,19.32,23.33,21.54,28.37,5.13,56.83,9.34,85.73,10.3a102.71,102.71,0,0,1,42.82,10.62,57.29,57.29,0,0,1,26.06,25.34c3.68,7.09,7.49,14.12,10.86,21.36,7.22,15.47,6.52,30.24-2.85,45.06-13.81,21.86-32.79,38-54.39,51.34C658,711.24,639.28,722.12,620.56,733a104.56,104.56,0,0,0-28.13,24.36,73.22,73.22,0,0,1-18.59,16.26c-28.25,16.65-57,32.45-85.42,48.81-10.34,6-21.53,6.49-32.88,6.32-1.55,0-3.06-2-4.59-3,1.09-1.53,1.84-3.73,3.33-4.49,8.43-4.33,17-8.34,25.59-12.42,4.3-2,7.57-4.83,7.55-11-5.14,1.44-10.14,2.44-14.86,4.21q-36.66,13.77-73.2,27.89A53.15,53.15,0,0,0,389,834.82c-3.81,2.52-7.65,2.29-11.9,2.2-5.34-.1-11.37-.38-15.95,1.81Q317.07,860,273.57,882.32c-7.78,4-14.68,9.74-21.72,15-1.41,1.07-1.6,3.76-2.36,5.71,1.93.34,4.17,1.49,5.74.89,9.74-3.76,19.42-7.72,28.94-12,6.67-3,13-6.65,19.56-10A33.39,33.39,0,0,1,325,878.34c3.07.51,6.75-1.24,9.84-2.65,4.08-1.86,7.88-2.42,11.91,0,.19,4.53-1.91,7.37-6.15,9-6.35,2.48-12.56,5.31-18.92,7.76-4.33,1.67-9.41,1.68-11.5,7.3-.56,1.51-3.47,2.68-5.47,3-16.93,2.85-31.57,11-46.34,19.13-15.72,8.66-31.91,16.46-47.89,24.64-3.63,1.85-6.68,2.25-10.49-.68-2-1.56-6.56-1.47-9.19-.33-8.08,3.48-15.76,7.87-23.63,11.84-13.19,6.66-26.46,13.14-39.56,20-4.06,2.11-7.65,5.1-11.46,7.69Z"/><path d="M528.63,210.74c8.42-12.67,16.21-24.88,24.52-36.73,9.47-13.48,19.41-26.63,29.13-39.93,1.67-2.29,3.4-3.21,5.6-.17-6.61,13.28-13.31,26.66-19.88,40.1-.66,1.35-.48,3.09-.69,4.66l2.31.7c5.09-8.54,10.43-16.94,15.22-25.64C602.46,121.76,621,90.36,644.2,62A271.27,271.27,0,0,1,663,42c6.27-6.24,12.41-6.89,18.34-2.67,2.9,2.07,3.8,4.57,2,7.73-2.17,3.74-4.3,7.52-6.7,11.11-6,9-12,18.05-18.36,26.78a65,65,0,0,0-13.13,39.06c0,8.06-4.11,13-11.63,14.82-.37-2.53-.73-5-1.28-8.76l-21.16,30.53c-2.75,4-5.36,8.05-8.29,11.88a8.4,8.4,0,0,1-4.74,2.57c8.52-22.14,25.9-39.81,30.51-63.51L627,110.36c-4.06,4-8.88,7.49-12,12.11-8,11.66-15.92,23.44-22.54,35.89-10.31,19.37-19.53,39.33-29.19,59-3.13,6.37-5.18,13-3.7,21.62,3.4-2.85,6.52-4.9,8.92-7.59,3.32-3.72,5.9-8.08,9.15-11.85,2.2-2.56,5-4.59,7.56-6.85l1.28.77c-.36,2-.3,4.19-1.13,6-9.52,20.34-19.05,40.67-28.86,60.87-2.6,5.36-6.12,10.29-9.28,15.38q-15,24.19-30,48.36c-1.14,1.83-2,3.91-3.27,5.6-14.07,18.19-23.6,38.84-32.56,59.81-1.17,2.75-2.69,5.49-3.13,8.38-3.89,25.48-12.84,49.57-20.38,74a757.48,757.48,0,0,0-26.3,120.83c-1.86,13.65-1.78,27.57-2.45,41.38-.76,15.66-16.44,27.27-31.31,22.74a13.08,13.08,0,0,1-7-5.05c-7.83-13.21-17.93-24.47-29.34-34.51-10.78-9.48-14.59-20.53-10.48-34.45,2.68-9.07,1-18.1-1.11-27.12-2.88-12.47-5.31-25.05-8-37.55a29.74,29.74,0,0,0-2.51-8.07c-12.75-23-19.95-48.21-29.06-72.65-8.48-22.75-16.76-45.58-25.1-68.38a90.22,90.22,0,0,1-3-9,56.36,56.36,0,0,0-20.67-31.59c-10.19-7.94-15.17-17.77-13.57-30.8.64-5.28.33-10.7,1.19-15.93a64.4,64.4,0,0,1,4-14.31c3.59-8.57,7.93-16.82,11.64-25.34,3.8-8.73,4.84-9,13.66-6.07a11.8,11.8,0,0,0,9.16-1.45c10.06-7,20.22-2.69,30.41-1.18,11.49,10.75,24.38,20.28,26.81,37.72,6.84,48.89,18.85,96.64,32.43,144,2.66,9.25,4.39,18.77,6.77,28.11,1.6,6.25,3.45,12.45,5.54,18.54a5.77,5.77,0,0,0,3.72,3.27c1.05.2,3-1.32,3.65-2.55a57.83,57.83,0,0,0,4-9.14Q429,392,456.74,310.53c3.2-9.43,5.29-19.24,7.72-28.91,4.41-17.59,14.78-32.28,23.23-47.9,1.9-3.51,3.75-7.21,6.44-10.05,1.57-1.66,5.48-3.18,7.07-2.34,4.33,2.27,6.66.17,8.86-2.61,2.79-3.52,5.21-7.33,7.83-11,4-5.6,4.92-5.58,8.73.08C527.07,208.49,527.54,209.16,528.63,210.74ZM661.79,63.33,661,61.82c-3,1.39-6.8,2-8.8,4.3-6,6.82-11.49,14.18-16.9,21.53-.91,1.24-.45,3.48-.63,5.25,2-.2,4.58.35,5.77-.71C649.53,84.09,657.14,74.76,661.79,63.33Z"/><path d="M632.82,18.59c-4.85,7.5-5.64,19.23-15.72,25.5a13,13,0,0,1-6.05,1.75c-3.61.17-6-1.77-5-5.53,2.54-9.76,5-19.59,8.37-29.07a9.42,9.42,0,0,1,11.75-6C630.68,6.47,632.88,10.28,632.82,18.59Z"/></g></g></svg>