<svg xmlns="http://www.w3.org/2000/svg" viewBox="0 0 841 841"><defs><style>.cls-1{fill:#343a40;}.cls-2{fill:#fff;}.cls-3{fill:#ef4b62;}</style></defs><title>Asset 11</title><g id="Layer_2" data-name="Layer 2"><g id="Layer_1-2" data-name="Layer 1"><rect class="cls-1" width="841" height="841"/><path class="cls-2" d="M407.23,422.1c-6.34-16.06-18-26.82-26.92-39.45-13-18.37-22.45-37.79-17.5-61.44,5.68-27.09,28.34-46,56.06-46.43,28.72-.39,51.81,17.46,58.7,44.63,5.67,22.33-2.09,41.32-14.09,59.11-8.11,12-17.41,23.28-26,35-1.52,2.09-4,4.29-2.48,7.74,4.76,1.13,6.69-3,9.55-5.25,17-13.49,33.94-26.59,56.81-29.48,23.34-2.95,48,10.13,60,33.77,10.53,20.73,5.67,46-9.19,63.4-22.62,26.5-62.13,25.68-87.64,6.4-8.77-6.63-17.38-13.48-26.18-20.07-2.13-1.59-4.3-4.94-7.28-3s-1.08,5.25-.38,7.89c7.12,26.79,14.74,53.38,27.67,78.13,6.48,12.42,6.21,13.19-7,11.59-21.65-2.61-43.16-2.15-64.74.31-2.65.3-6,2.56-7.94-.26-1.79-2.63.85-5.4,2.16-7.78,13.6-24.83,21.83-51.57,28.3-78.93.85-3.6,4.21-8.65.63-10.84-4-2.44-7.49,2.59-10.67,5.14-10.22,8.22-20.21,16.66-31.73,23.2-33.62,19.08-72.76,7.86-88.26-26.4-9.8-21.66-6.31-42.89,8.25-61.09,13.48-16.86,31.84-23.66,53.88-21.12,23,2.66,39.5,16.55,56.33,30.23,1.92,1.56,3.76,3.23,5.74,4.71C403.75,422.21,404.63,422,407.23,422.1Z"/><path class="cls-2" d="M544.09,304.12c-2.92.22-5.25-1.39-6.73-4.34s-.88-5.53,1-7.93a46.92,46.92,0,0,1,3.43-3.63c12.36-12.38,24.84-24.65,37.09-37.15,15.73-16.06,32-31.64,47.37-48,13.9-14.79,28.92-28.54,43.46-42.73,3.94-3.84,8.77-4.29,12-1.21,3.63,3.49,3.38,7.79-1,12.2C661.9,190.19,643,209,624.19,227.9q-35,35.31-69.86,70.79C551.62,301.43,548.85,304.13,544.09,304.12Z"/><path class="cls-2" d="M543.92,537.17c4.88,0,7.67,2.64,10.37,5.38,14.73,14.94,29.53,29.82,44.14,44.88,26.35,27.14,53.38,53.6,80.12,80.35a47.36,47.36,0,0,1,3.79,4c2.73,3.5,2.56,7.49-.56,10.33s-6.66,2.76-10.1.61a20.57,20.57,0,0,1-3.28-3.06L541.51,552.74a36.56,36.56,0,0,1-3.37-3.68,6.82,6.82,0,0,1-.58-8C539.09,538.41,541.33,536.91,543.92,537.17Z"/><path class="cls-2" d="M304.3,296.11a7.72,7.72,0,0,1-3.94,7.07,7.86,7.86,0,0,1-8.53-.36,24.36,24.36,0,0,1-3.3-3.05L161.29,172.53c-.82-.83-1.68-1.63-2.42-2.52-3.07-3.7-3-7.63,0-10.76,2.78-2.82,7.57-2.9,10.89-.14a34,34,0,0,1,2.51,2.44q63.81,63.8,127.59,127.6C301.88,291.12,304.34,292.84,304.3,296.11Z"/><path class="cls-2" d="M304.28,543.5c.05,4.32-2.25,6.53-4.51,8.79L239,613.08l-67.15,67.16c-1.89,1.89-3.69,3.79-6.7,3.89-3.32.12-5.87-.94-7.52-3.87a7,7,0,0,1,.77-8.38,32.76,32.76,0,0,1,2.72-2.93q64-64,127.92-128c2.49-2.5,5-4.38,8.75-3.73C301.7,537.92,303.85,540.32,304.28,543.5Z"/><path class="cls-3" d="M230.65,415.89C217.84,403,205,390.25,192.18,377.39c-3.32-3.34-7-5.56-12-5.21-6-.5-10.25,3.08-14.19,7q-16,15.78-31.79,31.76c-2.81,2.83-5.86,5.43-8.13,8.77-5.37,7.9-4.82,14.71,1.93,21.49q19.56,19.62,39.19,39.19c7.43,7.4,15.67,7.49,23.27.21,4.32-4.14,8.49-8.45,12.73-12.69,9.18-9.18,18.42-18.29,27.51-27.56C238.75,432.08,238.69,424,230.65,415.89Zm-12.3,15.87c-12.2,12.05-24.28,24.22-36.42,36.33a30.11,30.11,0,0,1-2.44,2c-1.89.08-2.7-1.1-3.61-2-11.91-11.87-23.75-23.81-35.71-35.62-2.45-2.42-2.48-4.2,0-6.63q18.14-17.9,36-36c2.49-2.53,4.27-2.22,6.62.16q17.73,17.92,35.68,35.65C220.87,428,220.59,429.55,218.35,431.76Z"/><path class="cls-3" d="M714.12,417.44q-19.95-20.29-40.25-40.25c-3.12-3.08-6.74-5.52-11.54-5-6.12-.55-10.37,3-14.31,6.9q-18.46,18.27-36.73,36.72a27.75,27.75,0,0,0-3.18,3.83c-5.47,7.85-4.92,14.74,1.79,21.47q19.56,19.63,39.19,39.2c7.46,7.44,15.77,7.68,23.25.32Q693.33,460,714,439C720.22,432.65,720.29,423.73,714.12,417.44Zm-13.63,14.08C688.27,443.78,676,456,663.81,468.29c-2.12,2.14-3.64,2.19-5.77,0q-17.91-18.1-36-36c-2.26-2.23-2.36-4,0-6.25q18.27-18.1,36.37-36.38c2.31-2.32,4-2.12,6.26.12,11.95,12.06,24,24,36,36.05a4.88,4.88,0,0,1,1.89,3.17A24,24,0,0,1,700.49,431.52Z"/></g></g></svg>